<svg xmlns="http://www.w3.org/2000/svg" xmlns:xlink="http://www.w3.org/1999/xlink" width="2000" zoomAndPan="magnify" viewBox="0 0 1500 1499.999933" height="2000" preserveAspectRatio="xMidYMid meet" version="1.0"><defs><g/><clipPath id="9dc692d3af"><path d="M 398 473 L 658.378906 473 L 658.378906 593 L 398 593 Z M 398 473 " clip-rule="nonzero"/></clipPath></defs><g clip-path="url(#9dc692d3af)"><path fill="#002a62" d="M 398.0625 570.300781 C 403.679688 565.269531 412.316406 564.417969 424.03125 567.8125 C 424.398438 567.917969 424.71875 567.917969 425.035156 567.863281 C 426.359375 567.707031 427.316406 566.488281 427.15625 565.109375 C 427.101562 564.789062 427.050781 564.472656 426.890625 564.207031 L 417.300781 547.089844 C 416.503906 545.660156 416.082031 544.019531 416.132812 542.375 C 416.1875 537.234375 420.425781 533.207031 425.566406 533.261719 C 427.261719 533.3125 428.851562 533.789062 430.28125 534.636719 L 464.675781 556.101562 C 466.527344 557.265625 468.808594 557.371094 470.714844 556.363281 L 509.664062 535.488281 C 509.824219 535.378906 510.035156 535.222656 510.195312 535.007812 C 510.882812 534.214844 510.777344 533.046875 510.035156 532.359375 C 509.824219 532.199219 509.609375 532.09375 509.398438 531.988281 L 436.269531 506.445312 C 435.105469 506.074219 434.308594 504.964844 434.308594 503.746094 C 434.308594 502.15625 435.632812 500.828125 437.222656 500.828125 C 437.332031 500.828125 437.488281 500.882812 437.59375 500.882812 C 471.617188 505.441406 523.175781 517.363281 556.347656 507.347656 C 578.394531 500.722656 600.542969 490.867188 622.960938 477.726562 C 633.609375 471.472656 644.582031 471.578125 655.972656 478.042969 C 657.828125 479.101562 658.730469 481.382812 658.039062 483.394531 C 649.984375 506.925781 592.914062 516.78125 590.742188 528.597656 C 590.6875 528.914062 590.6875 529.234375 590.6875 529.550781 C 590.953125 531.777344 593.441406 533.3125 596.25 532.941406 C 596.621094 532.890625 596.992188 532.835938 597.417969 532.730469 L 612.679688 527.589844 C 613.472656 527.324219 614.320312 527.167969 615.167969 527.167969 C 619.726562 527.167969 623.4375 530.875 623.4375 535.488281 C 623.4375 538.453125 621.792969 541.261719 619.144531 542.691406 L 602.453125 551.4375 C 600.015625 552.707031 599.113281 554.667969 599.800781 557.320312 L 602.347656 568.128906 C 602.503906 568.765625 602.558594 569.402344 602.558594 570.089844 C 602.558594 574.648438 598.847656 578.355469 594.292969 578.355469 C 592.648438 578.355469 591.003906 577.828125 589.628906 576.925781 C 575.746094 567.28125 561.59375 546.933594 541.457031 554.246094 C 512.894531 564.632812 486.453125 576.449219 462.128906 589.75 C 443.371094 599.976562 419.207031 573.058594 398.0625 570.300781 Z M 398.0625 570.300781 " fill-opacity="1" fill-rule="evenodd"/></g><path fill="#002a62" d="M 394.355469 584.027344 C 399.125 583.019531 402.195312 583.019531 403.574219 584.027344 C 404.632812 584.820312 404.582031 585.511719 403.414062 586.09375 L 311.738281 627.160156 C 236.863281 663.300781 170.78125 711.257812 113.394531 770.929688 C 111.695312 772.675781 110.585938 772.359375 110.054688 769.972656 C 80.113281 634.316406 179.261719 484.71875 323.398438 478.46875 C 331.1875 478.148438 331.292969 478.890625 323.714844 480.800781 C 216.039062 507.292969 143.542969 596.160156 150.0625 708.769531 C 150.167969 710.941406 151.175781 711.472656 152.976562 710.199219 C 230.238281 657.421875 304.425781 611.210938 394.355469 584.027344 Z M 394.355469 584.027344 " fill-opacity="1" fill-rule="evenodd"/><path fill="#ff8912" d="M 420.054688 603.738281 C 332.777344 662.507812 202.949219 752.433594 158.117188 852.109375 C 119.167969 938.804688 198.390625 975.898438 267.386719 984.378906 C 279.363281 985.808594 301.140625 988.085938 312.375 987.132812 C 305.382812 996.195312 261.449219 1005.628906 248.257812 1007.851562 C 197.332031 1016.492188 144.976562 1009.601562 112.652344 965.988281 C -2.816406 810.140625 312.375 641.046875 418.253906 598.757812 C 433.039062 592.929688 431.078125 596.320312 420.054688 603.738281 Z M 420.054688 603.738281 " fill-opacity="1" fill-rule="evenodd"/><path fill="#002a62" d="M 419.261719 616.035156 C 342.847656 679.09375 261.1875 760.542969 215.824219 849.78125 C 214.765625 851.792969 215.136719 853.59375 216.886719 855.078125 C 304.425781 929.957031 425.617188 936.949219 512.523438 860.589844 C 550.042969 827.683594 582.15625 774.902344 582.949219 723.449219 C 582.949219 722.917969 583.214844 722.757812 583.691406 722.917969 C 584.222656 723.078125 584.804688 723.289062 585.386719 723.5 C 585.867188 723.605469 586.128906 723.925781 586.128906 724.453125 C 581.890625 933.347656 340.515625 1028.519531 186.097656 899.589844 C 145.664062 865.78125 269.398438 743.320312 293.511719 718.941406 C 331.242188 680.628906 372.523438 645.230469 417.246094 612.695312 C 422.386719 608.984375 426.042969 606.917969 431.660156 604.003906 C 427.207031 609.515625 424.71875 611.53125 419.261719 616.035156 Z M 419.261719 616.035156 " fill-opacity="1" fill-rule="evenodd"/><g fill="#002a62" fill-opacity="1"><g transform="translate(658.733521, 792.94538)"><g><path d="M 106.046875 6.796875 C 85.804688 6.796875 69.113281 3.171875 55.96875 -4.078125 C 42.820312 -11.328125 33.078125 -20.769531 26.734375 -32.40625 C 20.390625 -44.039062 17.21875 -56.351562 17.21875 -69.34375 C 17.21875 -89.882812 22.582031 -107.632812 33.3125 -122.59375 C 44.039062 -137.550781 58.238281 -150.316406 75.90625 -160.890625 C 93.582031 -171.460938 113.070312 -180.597656 134.375 -188.296875 C 155.675781 -196.003906 176.898438 -203.03125 198.046875 -209.375 C 198.046875 -245.03125 185.207031 -262.859375 159.53125 -262.859375 C 142.601562 -262.859375 125.300781 -256.585938 107.625 -244.046875 C 89.957031 -231.503906 74.023438 -214.660156 59.828125 -193.515625 L 46.234375 -245.640625 C 65.265625 -253.492188 85.128906 -259.609375 105.828125 -263.984375 C 126.523438 -268.367188 146.390625 -270.5625 165.421875 -270.5625 C 185.054688 -270.5625 202.804688 -267.84375 218.671875 -262.40625 C 234.535156 -256.96875 247.148438 -248.351562 256.515625 -236.5625 C 265.878906 -224.78125 270.5625 -209.070312 270.5625 -189.4375 L 270.5625 0 L 198.046875 0 L 198.046875 -42.140625 C 187.171875 -29.148438 173.570312 -17.742188 157.25 -7.921875 C 140.9375 1.890625 123.867188 6.796875 106.046875 6.796875 Z M 140.046875 -18.578125 C 149.710938 -18.578125 159.601562 -21.597656 169.71875 -27.640625 C 179.84375 -33.679688 189.285156 -41.085938 198.046875 -49.859375 L 198.046875 -201.671875 C 160.285156 -190.191406 132.789062 -175.3125 115.5625 -157.03125 C 98.34375 -138.75 89.734375 -114.804688 89.734375 -85.203125 C 89.734375 -64.960938 94.566406 -48.796875 104.234375 -36.703125 C 113.898438 -24.617188 125.835938 -18.578125 140.046875 -18.578125 Z M 140.046875 -18.578125 "/></g></g></g><g fill="#002a62" fill-opacity="1"><g transform="translate(956.038775, 792.94538)"><g><path d="M 94.265625 0 L 21.75 0 L 21.75 -261.953125 L 94.265625 -261.953125 L 94.265625 -136.875 L 94.71875 -136.875 C 99.851562 -159.53125 107.023438 -179.921875 116.234375 -198.046875 C 125.453125 -216.171875 136.03125 -231.203125 147.96875 -243.140625 C 159.90625 -255.078125 172.894531 -262.859375 186.9375 -266.484375 C 200.988281 -270.109375 215.421875 -268.597656 230.234375 -261.953125 L 222.515625 -216.625 C 201.066406 -226.601562 182.035156 -228.796875 165.421875 -223.203125 C 148.804688 -217.609375 134.601562 -205.519531 122.8125 -186.9375 C 111.03125 -168.363281 101.515625 -144.269531 94.265625 -114.65625 Z M 94.265625 0 "/></g></g></g><g fill="#002a62" fill-opacity="1"><g transform="translate(1170.406689, 792.94538)"><g><path d="M 172.21875 7.25 C 150.769531 7.25 130.453125 4.003906 111.265625 -2.484375 C 92.078125 -8.984375 75.15625 -18.503906 60.5 -31.046875 C 45.84375 -43.585938 34.285156 -58.84375 25.828125 -76.8125 C 17.367188 -94.789062 13.140625 -115.113281 13.140625 -137.78125 C 13.140625 -154.394531 15.628906 -170.554688 20.609375 -186.265625 C 25.597656 -201.972656 33.832031 -216.171875 45.3125 -228.859375 C 56.800781 -241.554688 72.285156 -251.679688 91.765625 -259.234375 C 111.253906 -266.785156 135.351562 -270.5625 164.0625 -270.5625 C 179.46875 -270.5625 196.460938 -268.972656 215.046875 -265.796875 C 233.628906 -262.628906 250.773438 -257.875 266.484375 -251.53125 L 255.609375 -206.203125 C 242.015625 -224.335938 226.679688 -237.9375 209.609375 -247 C 192.535156 -256.0625 177.203125 -260.59375 163.609375 -260.59375 C 146.691406 -260.59375 132.335938 -254.773438 120.546875 -243.140625 C 108.765625 -231.503906 99.851562 -216.09375 93.8125 -196.90625 C 87.769531 -177.726562 84.75 -156.65625 84.75 -133.6875 C 84.75 -109.820312 87.921875 -87.992188 94.265625 -68.203125 C 100.609375 -48.410156 109.820312 -32.546875 121.90625 -20.609375 C 134 -8.679688 148.503906 -2.71875 165.421875 -2.71875 C 179.617188 -2.71875 194.953125 -8.078125 211.421875 -18.796875 C 227.890625 -29.523438 244.734375 -45.769531 261.953125 -67.53125 L 275.546875 -22.203125 C 258.929688 -11.929688 241.785156 -4.457031 224.109375 0.21875 C 206.429688 4.90625 189.132812 7.25 172.21875 7.25 Z M 172.21875 7.25 "/></g></g></g><g fill="#ff8912" fill-opacity="1"><g transform="translate(675.650303, 895.342055)"><g><path d="M 30.1875 0 L 18.953125 0 L 18.953125 -49.46875 L 0.78125 -49.46875 L 0.78125 -59.53125 L 48.296875 -59.53125 L 48.296875 -49.46875 L 30.1875 -49.46875 Z M 30.1875 0 "/></g></g></g><g fill="#ff8912" fill-opacity="1"><g transform="translate(732.599303, 895.342055)"><g><path d="M 40.484375 -25.828125 L 51.171875 0 L 39.234375 0 L 29.796875 -23.796875 L 16.546875 -23.796875 L 16.546875 0 L 5.3125 0 L 5.3125 -59.53125 L 30.96875 -59.53125 C 34.71875 -59.53125 38.007812 -58.914062 40.84375 -57.6875 C 43.675781 -56.46875 45.882812 -54.570312 47.46875 -52 C 49.0625 -49.425781 49.859375 -46.082031 49.859375 -41.96875 C 49.859375 -38.070312 49.023438 -34.742188 47.359375 -31.984375 C 45.691406 -29.222656 43.398438 -27.171875 40.484375 -25.828125 Z M 29.40625 -49.46875 L 16.546875 -49.46875 L 16.546875 -33.625 L 29.40625 -33.625 C 32.425781 -33.625 34.726562 -34.300781 36.3125 -35.65625 C 37.90625 -37.007812 38.703125 -38.984375 38.703125 -41.578125 C 38.703125 -44.128906 37.894531 -46.082031 36.28125 -47.4375 C 34.664062 -48.789062 32.375 -49.46875 29.40625 -49.46875 Z M 29.40625 -49.46875 "/></g></g></g><g fill="#ff8912" fill-opacity="1"><g transform="translate(794.151002, 895.342055)"><g><path d="M 12.328125 0 L 0.546875 0 L 21.53125 -59.53125 L 33.859375 -59.53125 L 54.84375 0 L 43.0625 0 L 39 -12.25 L 16.3125 -12.25 Z M 27.703125 -47.28125 L 19.5 -22.078125 L 35.890625 -22.078125 Z M 27.703125 -47.28125 "/></g></g></g><g fill="#ff8912" fill-opacity="1"><g transform="translate(851.489823, 895.342055)"><g><path d="M 33.546875 0 L 21.21875 0 L 0.234375 -59.53125 L 12.015625 -59.53125 L 27.390625 -12.328125 L 42.75 -59.53125 L 54.53125 -59.53125 Z M 33.546875 0 "/></g></g></g><g fill="#ff8912" fill-opacity="1"><g transform="translate(914.055663, 895.342055)"><g><path d="M 45.015625 0 L 5.3125 0 L 5.3125 -59.53125 L 45.015625 -59.53125 L 45.015625 -49.46875 L 16.546875 -49.46875 L 16.546875 -34.796875 L 42.046875 -34.796875 L 42.046875 -24.8125 L 16.546875 -24.8125 L 16.546875 -10.0625 L 45.015625 -10.0625 Z M 45.015625 0 "/></g></g></g><g fill="#ff8912" fill-opacity="1"><g transform="translate(970.302545, 895.342055)"><g><path d="M 41.734375 0 L 5.3125 0 L 5.3125 -59.53125 L 16.546875 -59.53125 L 16.546875 -10.0625 L 41.734375 -10.0625 Z M 41.734375 0 "/></g></g></g><g fill="#ff8912" fill-opacity="1"><g transform="translate(1020.698567, 895.342055)"><g/></g></g><g fill="#ff8912" fill-opacity="1"><g transform="translate(1049.407351, 895.342055)"><g><path d="M 23.40625 1.09375 C 19.914062 1.09375 16.660156 0.519531 13.640625 -0.625 C 10.628906 -1.769531 8.1875 -3.5 6.3125 -5.8125 C 4.445312 -8.125 3.515625 -10.972656 3.515625 -14.359375 C 3.515625 -17.160156 4.070312 -19.578125 5.1875 -21.609375 C 6.300781 -23.640625 7.882812 -25.484375 9.9375 -27.140625 C 12 -28.804688 14.378906 -30.472656 17.078125 -32.140625 C 14.640625 -34.640625 12.882812 -36.925781 11.8125 -39 C 10.75 -41.082031 10.21875 -43.425781 10.21875 -46.03125 C 10.21875 -48.988281 10.945312 -51.5625 12.40625 -53.75 C 13.863281 -55.9375 15.851562 -57.628906 18.375 -58.828125 C 20.894531 -60.023438 23.742188 -60.625 26.921875 -60.625 C 31.648438 -60.625 35.484375 -59.410156 38.421875 -56.984375 C 41.359375 -54.566406 42.828125 -51.226562 42.828125 -46.96875 C 42.828125 -43.632812 41.8125 -40.628906 39.78125 -37.953125 C 37.757812 -35.273438 34.976562 -32.867188 31.4375 -30.734375 L 41.03125 -18.640625 C 42.070312 -20.566406 42.8125 -22.414062 43.25 -24.1875 C 43.695312 -25.957031 44.023438 -27.800781 44.234375 -29.71875 L 54.0625 -29.71875 C 53.695312 -26.03125 52.96875 -22.597656 51.875 -19.421875 C 50.78125 -16.253906 49.273438 -13.367188 47.359375 -10.765625 L 56.015625 0 L 43.0625 0 L 39.546875 -4.375 C 37.578125 -2.445312 35.125 -1.050781 32.1875 -0.1875 C 29.25 0.664062 26.320312 1.09375 23.40625 1.09375 Z M 25.203125 -36.984375 C 27.429688 -38.429688 29.25 -39.894531 30.65625 -41.375 C 32.0625 -42.863281 32.765625 -44.597656 32.765625 -46.578125 C 32.765625 -48.085938 32.226562 -49.375 31.15625 -50.4375 C 30.09375 -51.5 28.679688 -52.03125 26.921875 -52.03125 C 25.148438 -52.03125 23.648438 -51.472656 22.421875 -50.359375 C 21.203125 -49.242188 20.59375 -47.773438 20.59375 -45.953125 C 20.59375 -44.390625 20.96875 -42.941406 21.71875 -41.609375 C 22.476562 -40.285156 23.640625 -38.742188 25.203125 -36.984375 Z M 23.640625 -7.875 C 25.617188 -7.875 27.539062 -8.195312 29.40625 -8.84375 C 31.28125 -9.5 32.894531 -10.320312 34.25 -11.3125 L 22.859375 -25.515625 C 20.359375 -24.003906 18.238281 -22.441406 16.5 -20.828125 C 14.757812 -19.210938 13.890625 -17.238281 13.890625 -14.90625 C 13.890625 -12.664062 14.835938 -10.929688 16.734375 -9.703125 C 18.628906 -8.484375 20.929688 -7.875 23.640625 -7.875 Z M 23.640625 -7.875 "/></g></g></g><g fill="#ff8912" fill-opacity="1"><g transform="translate(1115.4837, 895.342055)"><g/></g></g><g fill="#ff8912" fill-opacity="1"><g transform="translate(1144.192484, 895.342055)"><g><path d="M 30.1875 0 L 18.953125 0 L 18.953125 -49.46875 L 0.78125 -49.46875 L 0.78125 -59.53125 L 48.296875 -59.53125 L 48.296875 -49.46875 L 30.1875 -49.46875 Z M 30.1875 0 "/></g></g></g><g fill="#ff8912" fill-opacity="1"><g transform="translate(1199.191136, 895.342055)"><g><path d="M 31.90625 1.09375 C 27.019531 1.09375 22.753906 0.257812 19.109375 -1.40625 C 15.472656 -3.070312 12.46875 -5.332031 10.09375 -8.1875 C 7.726562 -11.050781 5.960938 -14.34375 4.796875 -18.0625 C 3.628906 -21.78125 3.046875 -25.691406 3.046875 -29.796875 C 3.046875 -33.910156 3.628906 -37.828125 4.796875 -41.546875 C 5.960938 -45.265625 7.726562 -48.550781 10.09375 -51.40625 C 12.46875 -54.269531 15.472656 -56.519531 19.109375 -58.15625 C 22.753906 -59.800781 27.019531 -60.625 31.90625 -60.625 C 36.84375 -60.625 41.128906 -59.800781 44.765625 -58.15625 C 48.410156 -56.519531 51.414062 -54.269531 53.78125 -51.40625 C 56.15625 -48.550781 57.925781 -45.265625 59.09375 -41.546875 C 60.269531 -37.828125 60.859375 -33.910156 60.859375 -29.796875 C 60.859375 -25.691406 60.269531 -21.78125 59.09375 -18.0625 C 57.925781 -14.34375 56.15625 -11.050781 53.78125 -8.1875 C 51.414062 -5.332031 48.410156 -3.070312 44.765625 -1.40625 C 41.128906 0.257812 36.84375 1.09375 31.90625 1.09375 Z M 31.90625 -8.96875 C 35.601562 -8.96875 38.722656 -9.835938 41.265625 -11.578125 C 43.816406 -13.328125 45.769531 -15.773438 47.125 -18.921875 C 48.476562 -22.066406 49.15625 -25.691406 49.15625 -29.796875 C 49.15625 -33.910156 48.476562 -37.515625 47.125 -40.609375 C 45.769531 -43.703125 43.816406 -46.117188 41.265625 -47.859375 C 38.722656 -49.597656 35.601562 -50.46875 31.90625 -50.46875 C 28.320312 -50.46875 25.238281 -49.597656 22.65625 -47.859375 C 20.082031 -46.117188 18.117188 -43.703125 16.765625 -40.609375 C 15.421875 -37.515625 14.75 -33.910156 14.75 -29.796875 C 14.75 -25.691406 15.421875 -22.066406 16.765625 -18.921875 C 18.117188 -15.773438 20.082031 -13.328125 22.65625 -11.578125 C 25.238281 -9.835938 28.320312 -8.96875 31.90625 -8.96875 Z M 31.90625 -8.96875 "/></g></g></g><g fill="#ff8912" fill-opacity="1"><g transform="translate(1270.962339, 895.342055)"><g><path d="M 28.703125 1.09375 C 23.035156 1.09375 18.429688 0.144531 14.890625 -1.75 C 11.359375 -3.65625 8.773438 -6.320312 7.140625 -9.75 C 5.503906 -13.1875 4.6875 -17.140625 4.6875 -21.609375 L 4.6875 -59.53125 L 16 -59.53125 L 16 -21.609375 C 16 -19.160156 16.382812 -16.972656 17.15625 -15.046875 C 17.9375 -13.128906 19.265625 -11.632812 21.140625 -10.5625 C 23.015625 -9.5 25.535156 -8.96875 28.703125 -8.96875 C 31.929688 -8.96875 34.46875 -9.5 36.3125 -10.5625 C 38.15625 -11.632812 39.46875 -13.128906 40.25 -15.046875 C 41.03125 -16.972656 41.421875 -19.160156 41.421875 -21.609375 L 41.421875 -59.53125 L 52.734375 -59.53125 L 52.734375 -21.609375 C 52.734375 -17.140625 51.914062 -13.1875 50.28125 -9.75 C 48.644531 -6.320312 46.054688 -3.65625 42.515625 -1.75 C 38.984375 0.144531 34.378906 1.09375 28.703125 1.09375 Z M 28.703125 1.09375 "/></g></g></g><g fill="#ff8912" fill-opacity="1"><g transform="translate(1336.258614, 895.342055)"><g><path d="M 40.484375 -25.828125 L 51.171875 0 L 39.234375 0 L 29.796875 -23.796875 L 16.546875 -23.796875 L 16.546875 0 L 5.3125 0 L 5.3125 -59.53125 L 30.96875 -59.53125 C 34.71875 -59.53125 38.007812 -58.914062 40.84375 -57.6875 C 43.675781 -56.46875 45.882812 -54.570312 47.46875 -52 C 49.0625 -49.425781 49.859375 -46.082031 49.859375 -41.96875 C 49.859375 -38.070312 49.023438 -34.742188 47.359375 -31.984375 C 45.691406 -29.222656 43.398438 -27.171875 40.484375 -25.828125 Z M 29.40625 -49.46875 L 16.546875 -49.46875 L 16.546875 -33.625 L 29.40625 -33.625 C 32.425781 -33.625 34.726562 -34.300781 36.3125 -35.65625 C 37.90625 -37.007812 38.703125 -38.984375 38.703125 -41.578125 C 38.703125 -44.128906 37.894531 -46.082031 36.28125 -47.4375 C 34.664062 -48.789062 32.375 -49.46875 29.40625 -49.46875 Z M 29.40625 -49.46875 "/></g></g></g><g fill="#ff8912" fill-opacity="1"><g transform="translate(1397.81029, 895.342055)"><g><path d="M 28.9375 1.09375 C 26.082031 1.09375 23.1875 0.738281 20.25 0.03125 C 17.3125 -0.664062 14.59375 -1.789062 12.09375 -3.34375 C 9.59375 -4.90625 7.5 -7 5.8125 -9.625 C 4.125 -12.257812 3.097656 -15.5 2.734375 -19.34375 L 14.359375 -19.34375 C 15.035156 -16.539062 16.125 -14.34375 17.625 -12.75 C 19.132812 -11.164062 20.890625 -10.0625 22.890625 -9.4375 C 24.898438 -8.8125 26.941406 -8.5 29.015625 -8.5 C 32.085938 -8.5 34.660156 -9.148438 36.734375 -10.453125 C 38.816406 -11.753906 39.859375 -13.835938 39.859375 -16.703125 C 39.859375 -18.773438 39.179688 -20.382812 37.828125 -21.53125 C 36.484375 -22.675781 34.726562 -23.570312 32.5625 -24.21875 C 30.40625 -24.875 28.054688 -25.460938 25.515625 -25.984375 C 23.066406 -26.554688 20.617188 -27.175781 18.171875 -27.84375 C 15.734375 -28.519531 13.484375 -29.457031 11.421875 -30.65625 C 9.367188 -31.851562 7.734375 -33.453125 6.515625 -35.453125 C 5.296875 -37.460938 4.6875 -40.023438 4.6875 -43.140625 C 4.6875 -46.992188 5.609375 -50.207031 7.453125 -52.78125 C 9.296875 -55.351562 11.800781 -57.300781 14.96875 -58.625 C 18.144531 -59.957031 21.738281 -60.625 25.75 -60.625 C 29.59375 -60.625 33.203125 -59.945312 36.578125 -58.59375 C 39.960938 -57.238281 42.828125 -55.179688 45.171875 -52.421875 C 47.515625 -49.671875 49 -46.132812 49.625 -41.8125 L 38.15625 -41.8125 C 37.425781 -44.988281 35.898438 -47.316406 33.578125 -48.796875 C 31.265625 -50.273438 28.578125 -51.015625 25.515625 -51.015625 C 22.703125 -51.015625 20.382812 -50.429688 18.5625 -49.265625 C 16.75 -48.097656 15.84375 -46.367188 15.84375 -44.078125 C 15.84375 -42.253906 16.476562 -40.820312 17.75 -39.78125 C 19.019531 -38.75 20.695312 -37.929688 22.78125 -37.328125 C 24.863281 -36.734375 27.097656 -36.148438 29.484375 -35.578125 C 31.984375 -35.054688 34.492188 -34.414062 37.015625 -33.65625 C 39.535156 -32.90625 41.875 -31.890625 44.03125 -30.609375 C 46.195312 -29.335938 47.925781 -27.632812 49.21875 -25.5 C 50.519531 -23.375 51.171875 -20.617188 51.171875 -17.234375 C 51.171875 -11.617188 49.21875 -7.160156 45.3125 -3.859375 C 41.414062 -0.554688 35.957031 1.09375 28.9375 1.09375 Z M 28.9375 1.09375 "/></g></g></g></svg>